<svg width="66" height="100" viewBox="0 0 66 100" fill="none" xmlns="http://www.w3.org/2000/svg">
<g clip-path="url(#clip0_8_222)">
<path d="M28.1795 0.769222L27.5641 1.2564L28.9744 1.28204L30.3846 1.30769L29.1026 1.89743C27.718 2.53846 26.4359 3.82051 25.6923 5.33333C24.9744 6.76922 24.5385 8.61538 24.6923 9.56409C24.8205 10.3333 24.7692 10.3846 24 10.4359C22.3846 10.5641 20.8205 11.0769 19.9744 11.7692L19.1282 12.4872L20 12.3846C20.718 12.3077 20.7949 12.359 20.359 12.5385C20.0769 12.6667 19.5128 13.1282 19.1539 13.5897C18.6154 14.2308 18.4615 14.6667 18.4615 15.641C18.4615 17.1795 18.8462 17.5385 19.0769 16.1795C19.1539 15.641 19.4615 14.9231 19.7436 14.5897L20.2564 13.9743L19.8718 14.7436C19.359 15.7692 19.3846 16.282 20.0257 18.3333C20.3077 19.282 20.4872 20.282 20.4359 20.5641C20.3077 21.0513 20.3333 21.0513 20.9744 20.6154C21.8718 20.0513 22.4872 19.3333 23.1026 18.0769L23.6154 17.0513L23.5385 18.1538C23.4103 19.5641 23.7692 19.4359 24.6667 17.7179C25.2308 16.641 25.3846 16 25.3846 14.7179V13.1026L26.0257 13.7436C26.3846 14.1026 26.7692 14.3333 26.8974 14.2308C27.0257 14.1538 27.2821 14.5128 27.4359 15.0256C27.6154 15.5128 28.2051 16.4102 28.7436 16.9743C29.8718 18.1538 30.1026 19.2308 29.2051 19.2308C28.5898 19.2308 27.6923 19.6667 27.6923 19.9743C27.6923 20.1026 28.2308 20.5641 28.9231 20.9743C29.5898 21.4102 30.5385 22.1795 31.0257 22.6923L31.9231 23.6154L31.2821 24.1026C30.4872 24.7179 30.1282 24.6154 27.5128 23.0513C26.359 22.359 25.3077 21.7949 25.1795 21.7949C24.9231 21.7949 24.5641 22.4615 24.5128 22.9487C24.4872 23.0769 23.4615 23.5897 22.2308 24.0769C19.9487 24.9487 19.9487 24.9487 20.1026 25.7436C20.3846 27.0769 22.8974 32.0256 24.6667 34.7436C27.7436 39.4102 31.5898 43.2051 36.1795 46.0256C38.4103 47.4102 41.5385 48.9743 42.0769 48.9743C42.359 48.9743 42.359 47.6154 42.1282 44.3846L41.9744 42L40.5385 40.9744C38.3077 39.3333 35.8974 37.1795 35.8974 36.7949C35.8974 35.9744 36.5128 36.1795 38.0257 37.4872C40 39.2051 41.0257 40 41.2821 40C41.3846 40 41.5385 39.7692 41.6154 39.4872C41.6923 39.2051 41.8718 38.9744 42 38.9744C42.3077 38.9744 42.4359 39.5385 42.8205 42.4102C42.9487 43.5128 43.4359 45.9743 43.8974 47.8974C44.6667 51.2308 44.6923 51.4615 44.4103 53.4615C44 56.1538 44.0257 57.0513 44.4615 57.4102C44.8718 57.7692 45.2564 57.3846 45.5128 56.359C45.6154 55.9487 45.7949 55.7179 45.9231 55.7949C46.359 56.0513 46.1539 57.359 45.4872 58.5897C44.3077 60.8461 45.6154 61.282 47.1282 59.1538C48.2821 57.5385 48.4359 56.2051 47.7436 53.4615C47.4359 52.2564 47.1539 50.0513 47.0513 48.0769C46.8974 44.6667 46.4872 40.1282 46.2821 38.9744C46.1539 38.4102 46.2821 38.282 47.3077 37.8718C48.5385 37.359 48.641 37.0769 48.2308 35.7436C48.1026 35.3333 47.9231 34.6923 47.8462 34.282C47.7436 33.8974 47.5385 33.5897 47.3333 33.5897C47.1026 33.5897 46.8462 32.8718 46.5641 31.4872C46.3333 30.3333 46.0513 29.282 45.9487 29.1795C45.8205 29.0513 45.4103 29.0769 45.0513 29.2051C44.5128 29.4102 44.359 29.4102 44.359 29.1282C44.359 28.9231 44.641 28.6923 45 28.6154C45.359 28.5128 45.641 28.2564 45.641 28.0513C45.641 27.7179 45.4615 27.6667 44.7436 27.7949C43.641 28 43.5385 27.5897 44.6154 27.2051C45.5128 26.8974 45.5128 26.9743 44.9744 25.641C44.6154 24.7692 44.2821 24.4615 43.0257 23.8205C42.1795 23.3846 41.2051 22.7692 40.8462 22.4102C40.5128 22.0769 40.1282 21.7949 40 21.7949C39.8718 21.7949 38.8974 22.359 37.8205 23.0513C36.7436 23.7692 35.641 24.4102 35.3846 24.4872C34.8974 24.641 33.5898 23.9743 33.5898 23.5897C33.5898 23.1282 34.9487 21.7949 36.2308 21C36.9487 20.5385 37.6154 20.1026 37.6923 20.0513C37.9487 19.8718 36.8205 19.2308 36.2308 19.2308C35.2564 19.2308 35.4615 18.1026 36.6923 16.7179C37.2564 16.0513 37.7949 15.2051 37.8718 14.8205C37.9487 14.4359 38.1282 14.1026 38.2821 14.1026C38.4359 14.1026 38.8205 13.8461 39.1539 13.5385L39.7436 13V14.7179C39.7436 16.4615 40.1795 17.9231 40.9487 18.7692C41.5641 19.4615 41.6923 19.3333 41.6154 18.1282C41.5641 17.0513 41.5641 17.0513 41.7949 17.8718C41.9487 18.3333 42.5128 19.1795 43.0513 19.7436C44.0257 20.7692 44.7949 21.1026 44.5128 20.3846C44.4359 20.1795 44.6154 19.282 44.8974 18.4102C45.1795 17.5128 45.3846 16.359 45.3333 15.8461C45.2051 14.5641 45.641 15.0256 45.8205 16.3846C46.0513 18.0513 46.6667 17.5641 46.6667 15.7179C46.6667 14.6667 45.9231 13.3333 44.9231 12.5641L44.2308 12.0256L45.2051 12.4102C46.4103 12.8974 46.4359 12.5385 45.2564 11.641C44.6154 11.1538 43.8462 10.8974 42.4872 10.6923L40.6154 10.4359L40.718 8.15384C40.8462 5.58974 40.5128 4.38461 39.2051 2.56409C38.1539 1.1282 36.0513 0.128197 34.5385 0.358967C33.9487 0.461533 33.3333 0.66666 33.1539 0.820507C32.9231 0.999992 32.641 0.974354 32.1795 0.66666C31.2564 0.0769157 28.9487 0.128197 28.1795 0.769222ZM32.2051 28.1026C32.3077 28.4872 32.3077 30.1795 32.2308 31.8974C32.1539 33.6154 32.1795 35.4872 32.2821 36.0769C32.5898 37.6923 32.2051 37.4102 31.3846 35.4615C30.7692 34 30.641 33.3846 30.641 31.5385C30.641 28.5385 31.718 26.1795 32.2051 28.1026ZM34.4872 28.7949C35.6154 31.2308 35.7949 34.6923 34.8974 36.359C34.4359 37.2051 34.2564 36.8974 34.2051 35.0513C34.1795 34.1795 33.9744 32.9487 33.7436 32.3333C33.1795 30.7692 33.1795 27.4359 33.7692 27.4359C33.8205 27.4359 34.1539 28.0513 34.4872 28.7949Z" fill="#2E2E23"/>
<path d="M19.5128 30.1795C19.359 30.6923 19.1026 31.7436 18.9487 32.4872C18.641 33.8718 18.641 33.8974 19.3846 34.5128L20.1282 35.1282L19.0769 34.9744L18.0256 34.8205L17.5897 36.0513C17.359 36.7179 17.1795 37.359 17.1795 37.4615C17.1795 37.5641 17.6667 37.8462 18.2821 38.0769L19.3846 38.4872L19.0513 40.5897C18.8718 41.7436 18.6154 44.641 18.4615 47.0513C18.2821 49.7692 17.9744 52.1795 17.6667 53.4615C16.7949 56.8462 17.0256 58.2564 18.6923 59.8462C19.1795 60.3333 19.6154 60.5128 19.8974 60.4103C20.359 60.2308 20.3077 59.8462 19.641 58C19.3846 57.3333 19.3077 56.641 19.4103 56.2051L19.5641 55.5128L19.7949 56.2821C19.8974 56.6923 19.9487 57.1795 19.8974 57.3077C19.7692 57.6923 20.8462 57.7436 21.0769 57.359C21.3846 56.8974 21.3333 54.4615 20.9744 52.8205C20.718 51.5128 20.7692 51.0256 21.4872 47.6667C21.9487 45.641 22.4359 43.0513 22.5897 41.9231C22.8718 39.7692 23.2308 38.5385 23.5128 38.8205C23.6154 38.9231 23.6667 39.5385 23.6154 40.2051C23.5641 41.2308 23.6667 41.5128 24.2051 42.0256C24.5641 42.3846 24.8718 42.8718 24.8718 43.1282C24.8718 43.5128 25.0769 43.5897 26.2821 43.5897C27.6667 43.5897 27.6923 43.5897 27.6923 44.359C27.6923 45.1026 27.6667 45.1282 26.4359 45.1282C25.7436 45.1282 25.0769 45.2821 24.9231 45.4359C24.5641 45.8974 23.1282 53.7692 22.4359 59.1026C21.4103 66.9231 21.4359 66.6923 21.8205 66.9231C22 67.0513 22.9487 67.3333 23.8718 67.5641C25.5385 67.9744 25.5897 68.0256 25.7692 68.9231C25.8718 69.4615 26 72.2821 26.0256 75.2564C26.0769 79.359 26.2564 81.8462 26.7692 85.7179C27.1282 88.5128 27.4359 91.0769 27.4359 91.4359C27.4359 91.8974 26.8205 92.6923 25.1282 94.359C23.5897 95.8718 22.7692 96.9231 22.6667 97.4103L22.5128 98.1795L19.8974 98.3077C18.4872 98.3846 13.4103 98.5128 8.66667 98.6154L0 98.7692V99.3846V100H32.5641H65.1282V99.3846V98.7436L56.6154 98.6154C51.9231 98.5385 46.8974 98.3846 45.4872 98.3077L42.8718 98.1795L42.718 97.4103C42.6154 96.8718 41.8205 95.9231 40.1282 94.3077L37.6923 91.9744L37.8462 90.6667C37.9231 89.9487 38.2051 87.6923 38.4615 85.641C38.718 83.5897 39.0256 81.2308 39.1282 80.3846C39.2308 79.5385 39.3333 76.641 39.359 73.9744C39.359 71.2821 39.4615 68.8205 39.5641 68.4615C39.7436 67.8974 40 67.7692 41.4615 67.4872C42.3846 67.3077 43.359 67.0513 43.6154 66.8974C44.2308 66.5897 44.2308 65.9487 43.5897 61.4103C43.3077 59.4359 42.9487 56.2308 42.7692 54.3077L42.4615 50.7949L39.7692 49.4872C38.2821 48.7692 36.1026 47.5385 34.9231 46.7692C33.6154 45.8718 32.641 45.4103 32.359 45.4872C32.1282 45.5641 31.359 45.4872 30.641 45.3077C29.5641 45.0256 29.359 44.8718 29.2821 44.3333C29.2308 43.9744 29.359 43.5385 29.5641 43.3846C29.8462 43.1282 29.5641 42.7179 27.9744 41.0769C25.641 38.6667 23.359 35.4103 21.5385 31.8462C20.7949 30.4103 20.1026 29.2308 19.9744 29.2308C19.8718 29.2308 19.641 29.6667 19.5128 30.1795ZM33.6667 70.6923C33.7692 72.0769 33.718 74.2821 33.5897 75.6154C33.4359 77.2564 33.4872 79.5385 33.718 83.0513C34.2051 89.7179 34.2051 92.5128 33.718 93.6667C33.5128 94.1795 33.3333 95.3077 33.3333 96.1538C33.3333 97.6154 33.3077 97.6923 32.6923 97.6923C32.0769 97.6923 32.0513 97.641 32.0513 95.9487C32.0513 94.7949 31.8974 93.9744 31.6154 93.4615C31.0769 92.5128 31.0513 89.8462 31.5385 83.4615C31.7436 80.7436 31.7949 77.6667 31.6923 75.3077C31.6154 73.2308 31.5897 70.7692 31.6923 69.8718L31.8718 68.2051H32.6923H33.5128L33.6667 70.6923Z" fill="#2E2E23"/>
</g>
<defs>
<clipPath id="clip0_8_222">
<rect width="65.1282" height="100" fill="white"/>
</clipPath>
</defs>
</svg>
